<svg width="21" height="22" viewBox="0 0 21 22" fill="none" xmlns="http://www.w3.org/2000/svg">
<mask id="mask0_240_168" style="mask-type:luminance" maskUnits="userSpaceOnUse" x="0" y="0" width="21" height="22">
<path fill-rule="evenodd" clip-rule="evenodd" d="M0 0H20.0884V21.5844H0V0Z" fill="white"/>
</mask>
<g mask="url(#mask0_240_168)">
<path fill-rule="evenodd" clip-rule="evenodd" d="M5.41896 16.0833C5.6575 16.0833 5.89604 16.1135 6.12938 16.176C6.83354 16.3656 7.445 16.8365 7.8075 17.4687C8.04292 17.8656 8.17313 18.3292 8.17729 18.8021C8.17729 19.4792 8.72104 20.0219 9.38979 20.0219H10.695C11.3606 20.0219 11.9044 19.4823 11.9075 18.8167C11.9033 18.0812 12.1908 17.3823 12.7169 16.8562C13.2356 16.3375 13.9606 16.026 14.6856 16.0469C15.1606 16.0583 15.6179 16.1865 16.021 16.4156C16.6013 16.7479 17.3419 16.55 17.6773 15.9771L18.369 14.824C18.5231 14.5583 18.5679 14.225 18.4856 13.9177C18.4044 13.6104 18.2002 13.3437 17.9252 13.1865C17.2815 12.8156 16.8221 12.2177 16.6315 11.501C16.4429 10.7979 16.546 10.0302 16.9138 9.39792C17.1533 8.98125 17.5044 8.63021 17.9252 8.38854C18.4898 8.05833 18.6877 7.31979 18.3596 6.74479C18.346 6.72187 18.3335 6.69792 18.3231 6.67292L17.7127 5.61458C17.3804 5.03646 16.6408 4.8375 16.0606 5.16771C15.4335 5.53854 14.6877 5.64479 13.971 5.45625C13.2554 5.27083 12.6554 4.81771 12.2815 4.17812C12.0419 3.77812 11.9117 3.3125 11.9075 2.83854C11.9169 2.48229 11.7919 2.1625 11.5648 1.92812C11.3388 1.69479 11.021 1.5625 10.695 1.5625H9.38979C9.06688 1.5625 8.76479 1.68854 8.53667 1.91562C8.30959 2.14375 8.18563 2.44688 8.18771 2.76979C8.16584 4.29271 6.92104 5.51875 5.41375 5.51875C4.93042 5.51354 4.46479 5.38333 4.06063 5.14167C3.49292 4.81875 2.75125 5.01771 2.41896 5.59583L1.71375 6.75521C1.39084 7.31562 1.58875 8.05625 2.16375 8.39062C3.01688 8.88437 3.54917 9.80521 3.54917 10.7927C3.54917 11.7802 3.01688 12.7 2.16167 13.1948C1.58979 13.526 1.39188 14.2625 1.72313 14.8354L2.38042 15.9687C2.54292 16.2615 2.80854 16.4729 3.11584 16.5594C3.42209 16.6448 3.75959 16.6083 4.04084 16.4521C4.45438 16.2094 4.93563 16.0833 5.41896 16.0833M10.695 21.5844H9.38979C7.85959 21.5844 6.61479 20.3406 6.61479 18.8104C6.61271 18.6219 6.55854 18.426 6.4575 18.2562C6.29396 17.9708 6.02938 17.7667 5.72417 17.6854C5.42104 17.6042 5.08875 17.649 4.81584 17.8073C4.16167 18.1719 3.39188 18.2604 2.68771 18.0625C1.98459 17.8635 1.37729 17.3802 1.02104 16.7396L0.370003 15.6177C-0.391456 14.2969 0.0616693 12.6042 1.38042 11.8417C1.75438 11.626 1.98667 11.224 1.98667 10.7927C1.98667 10.3615 1.75438 9.95833 1.38042 9.74271C0.0606277 8.97604 -0.391456 7.27917 0.368961 5.95833L1.07521 4.79896C1.82625 3.49271 3.52417 3.03229 4.84813 3.79271C5.02834 3.9 5.22417 3.95417 5.42313 3.95625C6.07209 3.95625 6.61479 3.42083 6.62521 2.7625C6.62104 2.03646 6.9075 1.33958 7.42938 0.813542C7.95334 0.288542 8.64917 0 9.38979 0H10.695C11.4408 0 12.1658 0.30625 12.6856 0.838542C13.2044 1.37396 13.4908 2.10833 13.469 2.85312C13.471 3.02083 13.5263 3.21458 13.6263 3.38437C13.7919 3.66562 14.0533 3.86354 14.3638 3.94479C14.6742 4.02187 14.9992 3.98021 15.2752 3.81667C16.6085 3.05521 18.3054 3.51146 19.0669 4.83437L19.7158 5.95833C19.7325 5.98854 19.7471 6.01771 19.7596 6.04792C20.4492 7.35104 19.9888 8.99167 18.7075 9.74062C18.521 9.84792 18.37 9.99792 18.2658 10.1792C18.1044 10.4594 18.0596 10.7927 18.1408 11.099C18.2242 11.4115 18.4231 11.6708 18.7033 11.8312C19.3356 12.1948 19.8075 12.8073 19.996 13.5146C20.1846 14.2208 20.0815 14.9875 19.7138 15.6198L19.0221 16.7719C18.2606 18.0802 16.5638 18.5333 15.244 17.7708C15.0679 17.6698 14.8648 17.6146 14.6627 17.6094H14.6565C14.3554 17.6094 14.046 17.7375 13.821 17.9615C13.5929 18.1896 13.4679 18.4937 13.47 18.8167C13.4627 20.3469 12.2179 21.5844 10.695 21.5844" fill="white"/>
</g>
<path fill-rule="evenodd" clip-rule="evenodd" d="M10.047 8.82715C8.96365 8.82715 8.0824 9.70944 8.0824 10.7928C8.0824 11.8761 8.96365 12.7563 10.047 12.7563C11.1303 12.7563 12.0116 11.8761 12.0116 10.7928C12.0116 9.70944 11.1303 8.82715 10.047 8.82715M10.047 14.3188C8.10219 14.3188 6.5199 12.7376 6.5199 10.7928C6.5199 8.84798 8.10219 7.26465 10.047 7.26465C11.9918 7.26465 13.5741 8.84798 13.5741 10.7928C13.5741 12.7376 11.9918 14.3188 10.047 14.3188" fill="white"/>
</svg>
