<svg width="36" height="36" viewBox="0 0 36 36" fill="none" xmlns="http://www.w3.org/2000/svg">
<path d="M23.6775 27.9765C23.7805 28.091 23.8611 28.2257 23.9145 28.3729C23.968 28.5201 23.9933 28.6769 23.9891 28.8343C23.9848 28.9918 23.9511 29.1468 23.8898 29.2906C23.8285 29.4344 23.7409 29.5641 23.6318 29.6723C23.5228 29.7805 23.3946 29.8651 23.2545 29.9212C23.1143 29.9774 22.9651 30.004 22.8151 29.9995C22.6652 29.9951 22.5176 29.9596 22.3807 29.8953C22.2438 29.8309 22.1204 29.7388 22.0174 29.6243L12.3121 18.8307C12.1117 18.608 12 18.3132 12 18.0067C12 17.7003 12.1117 17.4055 12.3121 17.1828L22.0174 6.38796C22.1197 6.27095 22.2431 6.17647 22.3805 6.11C22.5179 6.04353 22.6665 6.0064 22.8177 6.00076C22.9688 5.99511 23.1196 6.02108 23.2611 6.07714C23.4026 6.1332 23.5321 6.21824 23.6421 6.32732C23.7521 6.43641 23.8403 6.56735 23.9017 6.71256C23.9631 6.85777 23.9964 7.01434 23.9997 7.17318C24.003 7.33203 23.9762 7.48997 23.9209 7.63785C23.8656 7.78573 23.7829 7.92058 23.6775 8.03459L14.7122 18.0067L23.6775 27.9765Z" fill="#7D7D7D"/>
</svg>
