<svg width="36" height="36" viewBox="0 0 36 36" fill="none" xmlns="http://www.w3.org/2000/svg">
<path d="M12.3225 8.02351C12.2195 7.90901 12.1389 7.77433 12.0855 7.62714C12.032 7.47995 12.0067 7.32314 12.0109 7.16567C12.0152 7.0082 12.0489 6.85315 12.1102 6.70937C12.1715 6.5656 12.2591 6.4359 12.3682 6.32771C12.4772 6.21951 12.6054 6.13492 12.7455 6.07878C12.8857 6.02263 13.0349 5.99603 13.1849 6.00048C13.3348 6.00493 13.4824 6.04036 13.6193 6.10474C13.7562 6.16911 13.8796 6.26118 13.9826 6.37568L23.6879 17.1693C23.8883 17.392 24 17.6868 24 17.9933C24 18.2997 23.8883 18.5945 23.6879 18.8172L13.9826 29.612C13.8803 29.729 13.7569 29.8235 13.6195 29.89C13.4821 29.9565 13.3335 29.9936 13.1823 29.9992C13.0312 30.0049 12.8804 29.9789 12.7389 29.9229C12.5974 29.8668 12.4679 29.7818 12.3579 29.6727C12.2479 29.5636 12.1597 29.4326 12.0983 29.2874C12.0369 29.1422 12.0036 28.9857 12.0003 28.8268C11.997 28.668 12.0238 28.51 12.0791 28.3622C12.1344 28.2143 12.2171 28.0794 12.3225 27.9654L21.2878 17.9933L12.3225 8.02351Z" fill="currentColor"/>
</svg>
