<svg width="36" height="37" viewBox="0 0 36 37" fill="none" xmlns="http://www.w3.org/2000/svg">
<path d="M9.61258 14.446L8.80629 15.2446L8 14.446L8.80629 13.6475L9.61258 14.446ZM15.3148 28C15.0123 28 14.7222 27.881 14.5084 27.6692C14.2945 27.4574 14.1743 27.1701 14.1743 26.8705C14.1743 26.5709 14.2945 26.2836 14.5084 26.0718C14.7222 25.86 15.0123 25.741 15.3148 25.741V28ZM14.5085 20.8921L8.80629 15.2446L10.4189 13.6475L16.121 19.295L14.5085 20.8921ZM8.80629 13.6475L14.5085 8L16.121 9.59711L10.4189 15.2446L8.80629 13.6475ZM9.61258 13.3165H21.5872V15.5755H9.61258V13.3165ZM21.5872 28H15.3148V25.741H21.5872V28ZM29 20.6583C29 22.6054 28.219 24.4728 26.8288 25.8497C25.4387 27.2265 23.5532 28 21.5872 28V25.741C22.2611 25.741 22.9284 25.6095 23.5511 25.3541C24.1737 25.0987 24.7395 24.7243 25.216 24.2523C25.6926 23.7803 26.0706 23.22 26.3285 22.6033C26.5864 21.9867 26.7191 21.3257 26.7191 20.6583H29ZM21.5872 13.3165C23.5532 13.3165 25.4387 14.09 26.8288 15.4669C28.219 16.8437 29 18.7111 29 20.6583H26.7191C26.7191 19.9908 26.5864 19.3299 26.3285 18.7132C26.0706 18.0965 25.6926 17.5362 25.216 17.0642C24.7395 16.5923 24.1737 16.2179 23.5511 15.9624C22.9284 15.707 22.2611 15.5755 21.5872 15.5755V13.3165Z" fill="#202020"/>
<path d="M9.61258 14.446L8.80629 15.2446L8 14.446L8.80629 13.6475L9.61258 14.446ZM15.3148 28C15.0123 28 14.7222 27.881 14.5084 27.6692C14.2945 27.4574 14.1743 27.1701 14.1743 26.8705C14.1743 26.5709 14.2945 26.2836 14.5084 26.0718C14.7222 25.86 15.0123 25.741 15.3148 25.741V28ZM14.5085 20.8921L8.80629 15.2446L10.4189 13.6475L16.121 19.295L14.5085 20.8921ZM8.80629 13.6475L14.5085 8L16.121 9.59711L10.4189 15.2446L8.80629 13.6475ZM9.61258 13.3165H21.5872V15.5755H9.61258V13.3165ZM21.5872 28H15.3148V25.741H21.5872V28ZM29 20.6583C29 22.6054 28.219 24.4728 26.8288 25.8497C25.4387 27.2265 23.5532 28 21.5872 28V25.741C22.2611 25.741 22.9284 25.6095 23.5511 25.3541C24.1737 25.0987 24.7395 24.7243 25.216 24.2523C25.6926 23.7803 26.0706 23.22 26.3285 22.6033C26.5864 21.9867 26.7191 21.3257 26.7191 20.6583H29ZM21.5872 13.3165C23.5532 13.3165 25.4387 14.09 26.8288 15.4669C28.219 16.8437 29 18.7111 29 20.6583H26.7191C26.7191 19.9908 26.5864 19.3299 26.3285 18.7132C26.0706 18.0965 25.6926 17.5362 25.216 17.0642C24.7395 16.5923 24.1737 16.2179 23.5511 15.9624C22.9284 15.707 22.2611 15.5755 21.5872 15.5755V13.3165Z" fill="black" fill-opacity="0.2"/>
</svg>
